<?xml version="1.0" encoding="UTF-8"?>
<!DOCTYPE svg PUBLIC "-//W3C//DTD SVG 1.1//EN" "http://www.w3.org/Graphics/SVG/1.1/DTD/svg11.dtd">
<!-- Creator: CorelDRAW 2021 (64-Bit) -->
<svg xmlns="http://www.w3.org/2000/svg" xml:space="preserve" width="21.1666mm" height="5.9722mm" version="1.1" shape-rendering="geometricPrecision" text-rendering="geometricPrecision" image-rendering="optimizeQuality" fill-rule="evenodd" clip-rule="evenodd"
viewBox="0 0 2116.66 597.22"
 xmlns:xlink="http://www.w3.org/1999/xlink"
 xmlns:xodm="http://www.corel.com/coreldraw/odm/2003">
 <g id="Слой_x0020_1">
  <metadata id="CorelCorpID_0Corel-Layer"/>
  <path fill="#fff" d="M1653.18 80.52c11.31,-1.2 45.78,-2.28 54.34,0.77 4.99,3.95 2.55,101.35 2.55,106.18l0 215.15c0,14.57 -2.39,36.33 3.81,48.11 12.3,23.37 47.69,31.47 66.85,2.63 8.16,-12.28 5.92,-32.59 5.91,-48.86 -0.02,-48.03 -2.37,-314.26 1.52,-323.14 9.56,-3.23 42.28,-1.4 55.14,-1.17 3.36,15.42 0.93,235.7 0.93,271.47 0,66.36 11.53,122.01 -42.77,162.09 -13.63,10.06 -31.55,15.13 -52.59,15.29 -44.47,0.33 -70.2,-22.79 -85.07,-50.82 -17.49,-32.95 -11.39,-83.59 -11.39,-124.67 0,-22.18 -1.67,-257.8 0.77,-273.03zm-223.82 16.37c0,-15.09 -3.12,-17.03 11.66,-16.9 47.58,0.4 46.32,-4.57 46.31,13.12l-0.11 266.29 76.84 -0.31c2.62,-89.83 -1.1,-186.96 0.97,-278.67l56.08 -0.27 -0.36 449.14 -56.18 -1.1 -0.88 -110.21 -76.75 0.13c0.38,26 2.33,96.71 -1.1,110.79 -18.46,0.47 -37.25,1.95 -55.58,-0.42l-0.9 -431.59zm446.53 -16.27c28.96,-3.39 81.3,-1.69 106.46,7.31 74.5,26.64 113.64,134.27 49.89,203.61 -5.59,6.08 -10.91,7.83 -13.37,15.21 75.81,52.83 52.23,183.8 -38.06,214.63 -27.52,9.4 -73.82,11.2 -105.58,7.48l0.66 -448.24zm-498.81 522.01l739.56 0.18 0.03 -596.09 -739.58 -0.47 -0.01 596.38zm-1210.84 -495.67c-9.21,-5.66 -3.93,-6.08 -24.16,-16.84 -28.37,-15.1 -70.66,-12.58 -97.17,5.12 -43.91,29.33 -43.63,67.44 -43.64,116.77 0,52.84 0,105.68 0,158.52 0,27.59 -3.54,141.36 1.19,159.28l54.42 0.28c3.78,-10.37 1.55,-273.35 1.55,-321.86 0,-14.95 -2,-35.39 4.06,-48.22 13.26,-28.07 51.73,-29.26 67.66,-3.24 8.18,13.37 5.74,33.19 5.73,49.57l0.02 296.3c-0.01,5.14 -1.33,23.74 1.53,26.34 5.66,2.52 49.03,2.64 53.86,-0.45 3.43,-3.33 1.82,-18.43 1.81,-24l0.02 -296.3c0,-20.27 -5.8,-70.37 38.41,-70.11 43.78,0.26 38.69,46.09 38.7,68.22 0.01,35.86 -0.01,71.72 0.01,107.58 0.02,29.97 -3.15,201.86 1.58,216.18l54.81 -0.02c3.4,-12.46 1.13,-281.25 1.12,-318.07 0,-44.82 1.92,-86.92 -43.64,-116.74 -34.67,-22.7 -97.87,-19.23 -117.87,11.69zm583.54 210.73c-2.65,27.71 -6.84,43.85 -18.87,65.3 -6.6,11.78 -8.59,16.26 -16.21,25.3 -5.83,6.92 -12.26,15.47 -20.02,21.52 -7.46,5.81 -14.51,12.97 -23.67,17.86 -144.51,77.28 -266.15,-44.02 -253.99,-156.1 7.45,-68.68 52.38,-124.08 106.01,-142.96 121.23,-42.67 237.97,51.72 226.75,169.08zm-189.32 -236.47c-72.59,6.67 -115.84,42.12 -147.83,77.88 -33.76,37.75 -59.54,99.19 -52.84,168.08 11.25,115.77 116.19,216.05 247.11,201.65 116.68,-12.83 213.02,-115.36 199.86,-248.53 -3.11,-31.4 -12.72,-61.11 -26.56,-84.78 -43.71,-74.74 -122.02,-123.29 -219.74,-114.3zm357.17 448.61c9.31,1.13 43.19,2.45 49.16,-1.16 0.34,-0.35 0.73,-1.48 0.83,-1.21 0.11,0.28 0.65,-0.94 0.78,-1.24 0.14,-0.31 0.52,-0.93 0.67,-1.32l68.38 -388.49c2.62,-15.41 8.78,-41.4 8.84,-55.9 -12.45,-1.72 -47.41,-3.13 -56.65,0.78 -7.26,7.1 -38.62,249.2 -48.51,260.32l-45.13 -261.19 -57.01 -0.56c-0.93,17.4 14.74,92.07 18.81,113.72 6.99,37.21 13.37,74.96 19.61,112.21 4.99,29.77 34.91,210.74 40.22,224.04zm249.35 -448.57l-0.98 157.17c0,95.14 -1.2,196.84 0.37,291.22l156.78 0.45 0.82 -57.09c-34.5,-1.36 -67.11,0.61 -100.56,-1.1l-0.23 -53.19 44.62 -1.07 0.09 -56.79 -44.17 -0.76c-2.01,-70.26 0.06,-149.14 -0.62,-221.13 17.84,-3.51 79.36,-1.41 100.04,-1.4 1.89,-20.6 1.09,-36.19 0.85,-57.11 -15.52,-2.26 -149.84,-2.15 -157.01,0.8zm-1165.78 -53.74l1322.43 -0.32 0.71 -20.85 -1322.73 -0.18 -0.41 21.35zm0.11 575.46l1322.95 0.43 -0.42 -20.56 -1322.37 -0.51 -0.16 20.64zm1078.27 -72.88l53.88 -0.05c3.09,-6.41 1.94,-17.24 1.93,-25.52 -0.08,-64.01 2.35,-404.45 -0.72,-423.81l-55.52 -0.8c-3.54,18.98 -2.05,442.18 0.43,450.18zm852.99 -194.85c-4.29,20.84 -1.27,80.26 -1.31,105.11 -0.03,23.14 -6.78,36.8 20.48,30.95 13.27,-2.85 27.17,-11.77 34.07,-18.57 52.08,-51.29 -4.49,-131.37 -53.24,-117.49zm-1.29 -172.31l0 79.26c0,13.73 -4.7,33.7 9.85,33.82 31.97,0.27 62.89,-27.84 65.05,-65.83 1.65,-28.99 -13.55,-49.02 -27.95,-59.62 -9.25,-6.81 -16.76,-10.95 -30.48,-13.27 -20.98,-3.55 -16.44,6.68 -16.47,25.64z"/>
 </g>
</svg>
